<svg width="15" height="15" viewBox="0 0 15 15" fill="none" xmlns="http://www.w3.org/2000/svg">
<path d="M7.5 15C3.3645 15 0 11.6355 0 7.5C0 3.3645 3.3645 0 7.5 0C11.6355 0 15 3.3645 15 7.5C15 11.6355 11.6355 15 7.5 15ZM7.5 0.9375C3.88144 0.9375 0.9375 3.88144 0.9375 7.5C0.9375 11.1186 3.88144 14.0625 7.5 14.0625C11.1186 14.0625 14.0625 11.1186 14.0625 7.5C14.0625 3.88144 11.1186 0.9375 7.5 0.9375Z" fill="#004234"/>
<path d="M11.1466 7.96875H3.85156C3.59272 7.96875 3.38281 7.75894 3.38281 7.5C3.38281 7.24106 3.59272 7.03125 3.85156 7.03125H11.1466C11.4055 7.03125 11.6154 7.24106 11.6154 7.5C11.6154 7.75894 11.4055 7.96875 11.1466 7.96875Z" fill="#004234"/>
<path d="M7.5 11.6146C7.24116 11.6146 7.03125 11.4048 7.03125 11.1459V3.85064C7.03125 3.59171 7.24116 3.38189 7.5 3.38189C7.75884 3.38189 7.96875 3.59171 7.96875 3.85064V11.1458C7.96875 11.4048 7.75884 11.6146 7.5 11.6146Z" fill="#004234"/>
</svg>
