<svg width="26" height="26" viewBox="0 0 26 26" fill="none" xmlns="http://www.w3.org/2000/svg">
<path d="M8 9C6.14412 9.00202 4.36486 9.71912 3.05255 10.994C1.74025 12.2688 1.00208 13.9973 1 15.8002C1 18.567 3.06763 20.8646 5.25775 23.2965C5.95075 24.0666 6.66825 24.8631 7.307 25.6689C7.38874 25.7719 7.49372 25.8554 7.61387 25.9128C7.73401 25.9702 7.86611 26 8 26C8.13389 26 8.26599 25.9702 8.38613 25.9128C8.50628 25.8554 8.61126 25.7719 8.693 25.6689C9.33175 24.8631 10.0492 24.0666 10.7422 23.2965C12.9324 20.8646 15 18.567 15 15.8002C14.9979 13.9973 14.2597 12.2688 12.9474 10.994C11.6351 9.71912 9.85588 9.00202 8 9ZM8 18.3502C7.48082 18.3502 6.97331 18.2007 6.54163 17.9205C6.10995 17.6403 5.7735 17.242 5.57482 16.776C5.37614 16.3101 5.32415 15.7973 5.42544 15.3027C5.52672 14.808 5.77673 14.3536 6.14384 13.997C6.51096 13.6404 6.97869 13.3975 7.48789 13.2991C7.99709 13.2007 8.52489 13.2512 9.00454 13.4442C9.4842 13.6372 9.89417 13.9641 10.1826 14.3834C10.471 14.8028 10.625 15.2958 10.625 15.8002C10.625 16.4765 10.3484 17.1251 9.85616 17.6033C9.36387 18.0816 8.69619 18.3502 8 18.3502Z" fill="url(#paint0_linear_2407_699)"/>
<defs>
<linearGradient id="paint0_linear_2407_699" x1="14.2632" y1="9" x2="-2.16536" y2="20.4135" gradientUnits="userSpaceOnUse">
<stop stop-color="#F3DC9F"/>
<stop offset="0.44" stop-color="#EDCC88"/>
<stop offset="1" stop-color="#CFA460"/>
</linearGradient>
</defs>
</svg>
