<svg width="17" height="16" viewBox="0 0 17 16" fill="none" xmlns="http://www.w3.org/2000/svg">
<path d="M0 1.8805V1.33333C0 0.979711 0.111942 0.640573 0.311199 0.390524C0.510456 0.140476 0.780707 0 1.0625 0L15.9375 0C16.2193 0 16.4895 0.140476 16.6888 0.390524C16.8881 0.640573 17 0.979711 17 1.33333V1.8805L8.5 8.54717L0 1.8805ZM8.78156 9.89883C8.69711 9.96498 8.59955 10 8.5 10C8.40045 10 8.30289 9.96498 8.21844 9.89883L0 3.45283V14.6667C0 15.0203 0.111942 15.3594 0.311199 15.6095C0.510456 15.8595 0.780707 16 1.0625 16H15.9375C16.2193 16 16.4895 15.8595 16.6888 15.6095C16.8881 15.3594 17 15.0203 17 14.6667V3.45283L8.78156 9.89883Z" fill="url(#paint0_linear_2407_685)"/>
<defs>
<linearGradient id="paint0_linear_2407_685" x1="16.1053" y1="-7.57851e-07" x2="-0.295528" y2="14.7006" gradientUnits="userSpaceOnUse">
<stop stop-color="#F3DC9F"/>
<stop offset="0.44" stop-color="#EDCC88"/>
<stop offset="1" stop-color="#CFA460"/>
</linearGradient>
</defs>
</svg>
